<svg width="219" height="219" viewBox="0 0 219 219" fill="none" xmlns="http://www.w3.org/2000/svg">
<path d="M109.288 0C49.0289 0 0 49.0289 0 109.288C0 169.547 49.0289 218.576 109.288 218.576C169.547 218.576 218.576 169.547 218.576 109.288C218.576 49.0289 169.547 0 109.288 0ZM170.369 80.528L100.523 149.826C96.4145 153.934 89.8408 154.208 85.4583 150.1L48.4811 116.41C44.0987 112.301 43.8248 105.453 47.6594 101.071C51.768 96.6884 58.6156 96.4145 62.9981 100.523L92.3059 127.366L154.756 64.9154C159.139 60.533 165.986 60.533 170.369 64.9154C174.751 69.2979 174.751 76.1455 170.369 80.528Z" fill="#00bb28"/>
</svg>
