<svg width="202" height="157" viewBox="0 0 202 157" fill="none" xmlns="http://www.w3.org/2000/svg">
<path d="M125.334 45.4236C126.112 45.5905 127.813 46.0026 130.033 46.5674L175.026 1.30211C175.417 0.715998 176.074 0.32526 176.958 0.136995C177.704 -0.0228527 178.674 -0.0441657 179.821 0.0801601C182.08 0.318155 185.173 1.12094 188.725 2.50274C192.287 3.88808 195.484 5.51853 197.778 7.03175C200.438 8.78652 202.008 10.5946 201.852 12.0368C201.781 12.7117 201.412 13.2871 200.843 13.6565L157.228 62.2857L163.913 117.749C163.962 118.172 163.82 118.573 163.558 118.868C161.16 121.848 158.894 124.314 156.532 126.509C154.146 128.725 151.67 130.665 148.868 132.58L148.854 132.587V132.59C148.832 132.604 148.811 132.619 148.79 132.633C146.914 133.912 146.332 134.274 144.005 133.237L52.6484 92.5218C53.0497 93.0084 52.8402 93.7366 52.24 93.9355C51.1141 94.3014 49.9882 94.6673 48.8658 95.0367C48.5213 95.1504 48.1484 95.0438 47.914 94.7667C47.5091 94.2801 47.7151 93.5483 48.3153 93.3494C49.4412 92.9835 50.5671 92.6141 51.693 92.2482C51.7711 92.2234 51.8528 92.2092 51.9345 92.2056L41.663 87.6304C41.8086 88.0709 41.5919 88.5931 41.0912 88.7565C39.9653 89.1188 38.8358 89.4811 37.7099 89.8434C37.3654 89.9535 36.996 89.847 36.7616 89.5735C36.3532 89.0868 36.5627 88.348 37.1665 88.1526C38.264 87.8009 39.3615 87.4493 40.4554 87.0976L33.1815 83.8545C31.3027 83.0162 30.8445 82.0642 31.3453 80.9381C31.7679 79.9862 32.9684 79.5634 34.4743 79.0306C34.936 78.8672 35.4333 78.6932 35.8311 78.5369L36.6941 78.203C36.719 78.1923 36.7403 78.1852 36.7652 78.1746L117.549 46.8373C117.598 46.8196 117.645 46.8018 117.694 46.7912V46.7876C118.128 46.6704 118.582 46.5247 119.051 46.3685C120.784 45.8037 122.738 45.1714 125.054 45.3703C125.153 45.3774 125.245 45.3987 125.338 45.4236H125.334ZM175.591 4.75481L133.212 47.3879C137.325 48.4642 142.286 49.8212 146.474 51.0786C151.571 52.6096 155.669 54.1157 156.248 55.1103C156.348 55.2844 156.408 55.4691 156.429 55.6538H156.433L156.781 58.5524L196.61 14.1467C194.141 13.8519 190.735 12.939 187.031 11.4968C183.493 10.1186 180.503 8.59826 178.397 7.18805C177.182 6.3746 176.234 5.5505 175.591 4.75481ZM196.223 9.3975C194.088 7.99084 191.08 6.4634 187.702 5.14555C184.388 3.85611 181.554 3.11371 179.53 2.90058C178.702 2.81178 178.045 2.81533 177.583 2.90769C177.874 3.31618 178.713 3.9911 179.974 4.83651C181.916 6.13661 184.712 7.55747 188.05 8.85757C191.641 10.2571 194.884 11.1167 197.135 11.3547C197.828 11.4293 198.4 11.44 198.833 11.3903C198.446 10.9569 197.523 10.2571 196.223 9.40105V9.3975ZM29.9388 83.5667C30.5923 83.3572 30.7734 82.5189 30.2656 82.0606C30.0276 81.851 29.7079 81.78 29.406 81.8759L26.0213 82.9487C25.3677 83.1582 25.1866 83.9966 25.6945 84.4548C25.9325 84.6644 26.2521 84.7354 26.554 84.6395L29.9388 83.5667ZM0.619454 90.9837C-0.0340598 91.1933 -0.215197 92.0316 0.292697 92.4898C0.530662 92.6994 0.850315 92.7704 1.15221 92.6745L4.53699 91.6017C5.1905 91.3922 5.37164 90.5539 4.86374 90.0956C4.62578 89.886 4.30613 89.815 4.00423 89.9109L0.619454 90.9837ZM9.08317 88.3053C8.42966 88.5149 8.24852 89.3532 8.75642 89.8115C8.99438 90.021 9.31403 90.0921 9.61593 89.9962L13.0007 88.9234C13.6542 88.7138 13.8354 87.8755 13.3275 87.4173C13.0895 87.2077 12.7698 87.1367 12.4679 87.2326L9.08317 88.3053ZM17.5469 85.627C16.8934 85.8366 16.7122 86.6749 17.2201 87.1331C17.4581 87.3427 17.7778 87.4137 18.0796 87.3178L21.4644 86.2451C22.1179 86.0355 22.2991 85.1972 21.7912 84.739C21.5532 84.5294 21.2336 84.4583 20.9317 84.5542L17.5469 85.627ZM11.7825 96.2444C11.0792 96.4718 10.9407 97.406 11.5552 97.8251C11.7825 97.9779 12.0631 98.0205 12.3223 97.9353L15.7071 96.8554C16.3393 96.6494 16.5347 95.8572 16.0694 95.3848C15.8314 95.1468 15.4869 95.0616 15.1672 95.1646L11.7825 96.2444ZM20.2426 93.5483C19.5536 93.7721 19.4044 94.6708 19.9834 95.1077C20.2142 95.2782 20.509 95.328 20.7825 95.2427L24.1673 94.1629C24.6539 94.0066 24.906 93.4844 24.7284 93.0049C24.5615 92.5608 24.0785 92.3299 23.6274 92.472L20.2426 93.5519V93.5483ZM28.7028 90.8522C28.0067 91.0796 27.861 91.996 28.4613 92.4223C28.6921 92.5821 28.9763 92.6283 29.2427 92.5431C30.3721 92.1843 31.498 91.822 32.6274 91.4632C33.3094 91.243 33.4656 90.3549 32.9009 89.9145C32.6665 89.7369 32.3682 89.6836 32.0876 89.7724C30.9617 90.1347 29.8322 90.4935 28.7028 90.8522ZM16.1262 103.928C15.526 104.127 15.3164 104.862 15.7213 105.345C15.9557 105.622 16.3287 105.729 16.6732 105.615C17.277 105.42 17.8843 105.221 18.4881 105.022C19.1629 104.798 19.3192 103.917 18.758 103.477C18.5236 103.295 18.2182 103.242 17.9376 103.331L16.1227 103.921L16.1262 103.928ZM23.0023 101.679C22.3488 101.896 22.1783 102.738 22.6969 103.192C22.9384 103.398 23.2545 103.462 23.5564 103.367C24.6823 102.997 25.8082 102.628 26.9305 102.258C27.6408 102.02 27.7616 101.068 27.1258 100.663C26.8985 100.521 26.6286 100.486 26.3729 100.571C25.247 100.94 24.1246 101.31 22.9988 101.679H23.0023ZM31.4341 98.9015C30.777 99.1217 30.6101 99.9671 31.1357 100.422C31.3772 100.624 31.6933 100.688 31.9917 100.589C33.1176 100.219 34.2399 99.8463 35.3658 99.4769C36.0229 99.2567 36.1898 98.4113 35.6641 97.9566C35.4226 97.7541 35.1065 97.6902 34.8082 97.7896L31.4341 98.9015ZM39.8658 96.1201C39.223 96.3332 39.0454 97.1502 39.5391 97.612C39.7806 97.8322 40.1109 97.9068 40.4234 97.8038C41.5493 97.4344 42.6717 97.0614 43.7976 96.6956C44.4724 96.4718 44.6251 95.5873 44.0639 95.1504C43.826 94.9692 43.5276 94.9159 43.2435 95.0083L39.8694 96.1201H39.8658ZM63.3817 99.1217C64.0103 98.9121 64.1986 98.1164 63.7297 97.6475C63.4882 97.4131 63.1473 97.3314 62.8276 97.4344C61.7017 97.8038 60.5758 98.1768 59.4535 98.5533C58.8532 98.7594 58.6508 99.4982 59.0663 99.9778C59.3079 100.248 59.6737 100.351 60.0182 100.237C61.1405 99.8605 62.2629 99.4911 63.3852 99.1217H63.3817ZM25.8685 110.109C25.2363 110.318 25.0516 111.128 25.5347 111.593C25.7726 111.824 26.1136 111.899 26.4297 111.796C27.5556 111.423 28.6779 111.046 29.8003 110.666C30.436 110.45 30.6136 109.64 30.1235 109.178C29.882 108.954 29.5446 108.879 29.232 108.983C28.1132 109.363 26.9909 109.736 25.8685 110.109ZM34.2683 107.263C33.5971 107.494 33.455 108.382 34.0233 108.812C34.2612 108.99 34.5631 109.039 34.8473 108.943C35.966 108.556 37.0884 108.169 38.2072 107.782C38.8607 107.551 39.0134 106.702 38.4806 106.258C38.2391 106.059 37.9195 106.002 37.6247 106.105C36.5059 106.492 35.3907 106.88 34.2719 107.267L34.2683 107.263ZM42.6504 104.347C42.0288 104.567 41.8512 105.363 42.3271 105.825C42.5722 106.059 42.9167 106.134 43.2364 106.024C44.3552 105.633 45.4704 105.242 46.5892 104.851C47.2285 104.624 47.3919 103.803 46.8875 103.349C46.6425 103.136 46.3122 103.068 46.0067 103.175C44.8879 103.569 43.7727 103.956 42.6539 104.347H42.6504ZM51.0395 101.423C50.663 101.555 50.4215 101.917 50.4428 102.319C50.4819 102.908 51.0643 103.292 51.6184 103.104C52.7372 102.716 53.856 102.333 54.9748 101.949C55.6532 101.715 55.7917 100.816 55.2092 100.39C54.9712 100.219 54.6764 100.173 54.3994 100.265C53.2771 100.649 52.1583 101.036 51.0395 101.423ZM74.5305 104.308C74.8856 104.191 75.1272 103.867 75.1378 103.491C75.1556 102.873 74.5589 102.429 73.9693 102.621L70.5987 103.74C70.2258 103.864 69.9807 104.215 69.9914 104.61C70.0163 105.207 70.5916 105.611 71.1599 105.427L74.5305 104.308ZM31.4554 116.716C30.8374 116.922 30.6456 117.696 31.0931 118.172C31.3346 118.421 31.6827 118.509 32.0165 118.403L32.3895 118.279C33.011 118.073 33.2028 117.284 32.7446 116.815C32.5031 116.57 32.1586 116.488 31.8319 116.595L31.4589 116.719L31.4554 116.716ZM36.8859 114.915C36.2679 115.121 36.0761 115.895 36.5237 116.371C36.7652 116.62 37.1132 116.708 37.4471 116.602L40.8177 115.483C41.1728 115.366 41.4144 115.042 41.425 114.666C41.4428 114.048 40.8461 113.604 40.2565 113.796L36.8859 114.915ZM45.3141 112.119C44.959 112.236 44.7174 112.56 44.7068 112.936C44.689 113.554 45.2857 113.998 45.8753 113.806L49.2459 112.687C49.8816 112.474 50.0628 111.664 49.5797 111.199C49.3382 110.972 49.0044 110.897 48.6883 111L45.3177 112.119H45.3141ZM53.7423 109.324C53.3694 109.448 53.1243 109.8 53.135 110.194C53.1599 110.791 53.7352 111.196 54.3035 111.011L57.6741 109.892C58.047 109.768 58.2921 109.416 58.2814 109.022C58.2566 108.425 57.6812 108.02 57.1129 108.205L53.7423 109.324ZM62.1705 106.528C61.549 106.734 61.3572 107.523 61.8154 107.991C62.0569 108.237 62.4014 108.318 62.7282 108.212C63.8505 107.839 64.9764 107.466 66.0987 107.093C66.7203 106.887 66.9121 106.098 66.4539 105.629C66.2124 105.384 65.8679 105.302 65.5411 105.409C64.4188 105.782 63.2929 106.155 62.1705 106.528ZM85.6757 109.487C86.2902 109.277 86.4855 108.51 86.038 108.034C85.8 107.782 85.4413 107.693 85.111 107.803C83.9887 108.18 82.8663 108.553 81.7404 108.929C81.0585 109.16 80.9164 110.062 81.4989 110.489C81.7333 110.659 82.0281 110.705 82.3052 110.613L85.6722 109.487H85.6757ZM39.6563 123.06C39.0454 123.266 38.85 124.022 39.2833 124.502C39.5249 124.761 39.8836 124.857 40.221 124.743C41.3433 124.367 42.4657 123.99 43.588 123.614C44.2451 123.39 44.4084 122.538 43.8757 122.09C43.6377 121.891 43.3181 121.831 43.0233 121.93L39.6563 123.06ZM48.0738 120.236C47.399 120.463 47.2534 121.348 47.8181 121.785C48.0561 121.966 48.3579 122.015 48.6421 121.923C49.7644 121.547 50.8868 121.17 52.0091 120.793C52.5419 120.612 52.7763 119.994 52.4957 119.504C52.2826 119.138 51.8457 118.975 51.4444 119.11C50.322 119.486 49.1997 119.863 48.0774 120.239L48.0738 120.236ZM56.4914 117.408C55.8378 117.632 55.6745 118.474 56.1966 118.925C56.4381 119.127 56.7577 119.191 57.0561 119.092L60.4231 117.959C60.9594 117.778 61.1903 117.152 60.9061 116.666C60.6895 116.304 60.2562 116.144 59.8584 116.275L56.4914 117.408ZM64.9089 114.577C64.2625 114.797 64.092 115.629 64.6035 116.083C64.845 116.296 65.1717 116.364 65.4772 116.261C66.5995 115.884 67.7219 115.508 68.8442 115.128C69.3769 114.947 69.6114 114.329 69.3308 113.838C69.1177 113.472 68.6808 113.309 68.2795 113.444L64.9125 114.577H64.9089ZM73.3264 111.75C72.6587 111.977 72.506 112.844 73.0565 113.288C73.2945 113.476 73.6035 113.529 73.8912 113.433L77.2582 112.304C77.9153 112.08 78.0786 111.227 77.5459 110.78C77.3079 110.581 76.9883 110.521 76.6935 110.62L73.3264 111.75ZM96.8245 114.67C97.3573 114.488 97.5917 113.87 97.3111 113.38C97.098 113.014 96.6612 112.851 96.2598 112.986L92.8928 114.115C92.3139 114.311 92.1008 115.014 92.4737 115.501C92.7081 115.803 93.0988 115.92 93.4611 115.799L96.8281 114.67H96.8245ZM50.8086 128.26C50.2297 128.455 50.0166 129.159 50.3895 129.645C50.6239 129.947 51.0146 130.065 51.3769 129.944L54.7439 128.814C55.3228 128.619 55.5359 127.916 55.163 127.429C54.9286 127.127 54.5379 127.01 54.1756 127.131L50.8086 128.26ZM59.2262 125.433C58.5975 125.646 58.4128 126.449 58.8923 126.914C59.1338 127.145 59.4748 127.223 59.7909 127.116C60.9132 126.74 62.0356 126.363 63.1579 125.987C63.6907 125.806 63.9251 125.187 63.6445 124.697C63.4314 124.331 62.9945 124.168 62.5932 124.303C61.4708 124.68 60.3485 125.06 59.2262 125.433ZM67.6437 122.605C67.111 122.786 66.8765 123.404 67.1571 123.895C67.3702 124.26 67.8071 124.424 68.2084 124.289L71.5755 123.159C72.1082 122.978 72.3426 122.36 72.062 121.87C71.8489 121.504 71.4121 121.34 71.0107 121.475L67.6437 122.605ZM76.0613 119.778C75.5285 119.959 75.2941 120.577 75.5747 121.067C75.7878 121.433 76.2246 121.596 76.626 121.461L79.993 120.332C80.5719 120.136 80.785 119.433 80.4121 118.946C80.1777 118.644 79.787 118.527 79.4247 118.648C78.3024 119.024 77.18 119.401 76.0577 119.778H76.0613ZM84.4788 116.95C83.946 117.131 83.7116 117.749 83.9922 118.239C84.2053 118.605 84.6422 118.769 85.0435 118.634L88.4105 117.504C88.9433 117.323 89.1777 116.705 88.8971 116.215C88.684 115.849 88.2472 115.685 87.8458 115.82L84.4788 116.95ZM107.977 119.859C108.613 119.643 108.787 118.84 108.304 118.374C108.062 118.147 107.725 118.073 107.409 118.176L104.045 119.312C103.662 119.444 103.413 119.813 103.445 120.218C103.491 120.797 104.063 121.177 104.613 120.996L107.977 119.859ZM55.0565 135.865C54.4207 136.082 54.2467 136.885 54.7297 137.35C54.9712 137.577 55.3086 137.652 55.6247 137.549L57.5036 136.913C57.8872 136.782 58.1358 136.412 58.1038 136.007C58.0577 135.428 57.4858 135.048 56.9353 135.229L55.0565 135.865ZM61.9823 133.524C61.3465 133.741 61.1725 134.544 61.6555 135.009C61.8971 135.237 62.2345 135.311 62.5506 135.208C63.6729 134.828 64.7952 134.452 65.914 134.071C66.5498 133.855 66.7238 133.052 66.2408 132.587C65.9993 132.359 65.6619 132.285 65.3458 132.388C64.2234 132.768 63.1011 133.148 61.9823 133.524ZM70.3963 130.683C70.0127 130.814 69.7641 131.184 69.7961 131.589C69.8422 132.168 70.414 132.548 70.9646 132.366C72.0869 131.986 73.2092 131.61 74.328 131.23C74.9638 131.013 75.1378 130.21 74.6548 129.745C74.4133 129.518 74.0759 129.443 73.7598 129.546C72.6374 129.926 71.5151 130.306 70.3963 130.683ZM78.8067 127.841C78.171 128.058 77.9969 128.86 78.48 129.326C78.7215 129.553 79.0589 129.628 79.375 129.525C80.4973 129.145 81.6197 128.768 82.7385 128.388C83.3742 128.171 83.5483 127.369 83.0652 126.903C82.8237 126.676 82.4863 126.601 82.1702 126.704C81.0479 127.084 79.9255 127.461 78.8067 127.841ZM87.2207 124.999C86.8371 125.131 86.5885 125.5 86.6205 125.905C86.6667 126.484 87.2385 126.864 87.789 126.683L91.1525 125.546C91.7882 125.33 91.9623 124.52 91.4757 124.058C91.2342 123.834 90.8967 123.76 90.5842 123.863L87.2207 124.999ZM95.6312 122.157C94.9954 122.374 94.8214 123.177 95.3044 123.642C95.5459 123.87 95.8833 123.944 96.1994 123.841C97.3218 123.461 98.4441 123.085 99.5629 122.705C100.199 122.488 100.373 121.678 99.8861 121.216C99.6446 120.992 99.3072 120.918 98.9946 121.021C97.8723 121.401 96.75 121.781 95.6312 122.157ZM119.126 125.045C119.779 124.822 119.939 123.969 119.41 123.525C119.168 123.326 118.852 123.266 118.554 123.365C117.432 123.745 116.313 124.125 115.19 124.509C114.512 124.743 114.374 125.632 114.949 126.065C115.183 126.239 115.485 126.285 115.762 126.193C116.885 125.813 118.003 125.429 119.126 125.049V125.045ZM64.7846 141.758C64.1772 141.968 63.9855 142.721 64.4152 143.197C64.6532 143.456 65.0226 143.552 65.3564 143.439C66.4788 143.058 67.5975 142.675 68.7199 142.295C69.3556 142.074 69.5297 141.268 69.0395 140.806C68.798 140.583 68.4571 140.508 68.1481 140.615C67.0293 140.998 65.9069 141.378 64.7881 141.758H64.7846ZM73.1879 138.892C72.5664 139.108 72.3817 139.897 72.8505 140.362C73.092 140.6 73.4401 140.682 73.7633 140.572C74.8821 140.188 76.0044 139.805 77.1232 139.421C77.7767 139.194 77.9366 138.345 77.4038 137.901C77.1623 137.702 76.8426 137.641 76.5478 137.741C75.4291 138.124 74.3067 138.508 73.1879 138.892ZM81.5877 136.014C80.9555 136.235 80.7815 137.045 81.2716 137.503C81.5167 137.727 81.8505 137.798 82.1631 137.695L85.523 136.544C85.8249 136.437 86.0451 136.185 86.1055 135.872C86.2333 135.201 85.5905 134.643 84.9441 134.864L81.5842 136.014H81.5877ZM89.9875 133.134C89.4583 133.318 89.231 133.929 89.5045 134.416C89.7176 134.785 90.158 134.952 90.5629 134.814L93.9228 133.659C94.2922 133.532 94.5337 133.18 94.523 132.789C94.4982 132.192 93.9121 131.787 93.3474 131.979L89.9875 133.134ZM98.3873 130.253C97.7444 130.477 97.581 131.297 98.0818 131.755C98.3234 131.972 98.6537 132.04 98.9627 131.933L102.323 130.782C102.965 130.558 103.132 129.731 102.624 129.276C102.383 129.063 102.053 128.995 101.747 129.098L98.3873 130.249V130.253ZM106.787 127.376C106.166 127.592 105.981 128.381 106.45 128.846C106.691 129.084 107.039 129.166 107.362 129.056C108.481 128.672 109.604 128.289 110.722 127.908C111.156 127.759 111.404 127.312 111.301 126.864C111.177 126.353 110.648 126.058 110.151 126.228C109.032 126.612 107.909 126.992 106.791 127.376H106.787ZM130.275 130.232C130.871 130.026 131.074 129.28 130.655 128.804C130.413 128.534 130.044 128.434 129.703 128.551L126.339 129.699C125.743 129.905 125.54 130.651 125.959 131.127C126.201 131.397 126.57 131.496 126.911 131.379L130.275 130.232ZM70.4318 148.76C69.8351 148.966 69.6327 149.712 70.0518 150.188C70.2933 150.458 70.6627 150.557 71.0036 150.44L71.444 150.291C72.0798 150.07 72.2538 149.264 71.7637 148.802C71.5222 148.579 71.1812 148.504 70.8722 148.61L70.4318 148.76ZM75.9156 146.891C75.319 147.097 75.1165 147.843 75.5356 148.319C75.7771 148.589 76.1465 148.689 76.4875 148.571C77.6098 148.191 78.7286 147.808 79.8509 147.424C80.4476 147.218 80.6501 146.472 80.231 145.996C79.9894 145.726 79.6201 145.627 79.2791 145.744C78.1603 146.128 77.038 146.508 75.9156 146.891ZM84.319 144.025C83.7223 144.231 83.5198 144.977 83.9389 145.453C84.1805 145.723 84.5498 145.822 84.8908 145.705C86.0131 145.325 87.1319 144.941 88.2507 144.557C88.851 144.348 89.0463 143.609 88.6308 143.129C88.3892 142.86 88.0199 142.76 87.6789 142.877C86.5601 143.261 85.4378 143.641 84.3154 144.025H84.319ZM92.7223 141.158C92.0866 141.378 91.9125 142.185 92.4027 142.646C92.6442 142.87 92.9851 142.945 93.2941 142.838L96.6576 141.691C97.2934 141.471 97.4674 140.664 96.9773 140.202C96.7357 139.979 96.3948 139.904 96.0858 140.011L92.7223 141.158ZM101.126 138.291C100.529 138.497 100.327 139.243 100.746 139.719C100.987 139.989 101.357 140.089 101.697 139.972L105.061 138.824C105.697 138.604 105.871 137.798 105.381 137.336C105.139 137.112 104.798 137.038 104.489 137.144L101.129 138.291H101.126ZM109.529 135.425C108.932 135.631 108.73 136.377 109.149 136.853C109.39 137.123 109.76 137.222 110.101 137.105C111.223 136.725 112.342 136.341 113.464 135.958C114.1 135.737 114.274 134.931 113.784 134.469C113.542 134.246 113.201 134.171 112.892 134.277C111.77 134.661 110.651 135.041 109.533 135.425H109.529ZM117.932 132.558C117.297 132.778 117.123 133.585 117.613 134.047C117.854 134.27 118.195 134.345 118.504 134.238L121.868 133.091C122.557 132.853 122.685 131.933 122.084 131.517C121.85 131.358 121.562 131.319 121.296 131.411L117.932 132.558ZM141.42 135.414C142.038 135.201 142.222 134.423 141.768 133.954C141.523 133.709 141.171 133.62 140.844 133.734L137.484 134.885C136.866 135.098 136.682 135.876 137.136 136.345C137.381 136.59 137.733 136.679 138.06 136.565L141.42 135.414ZM78.6789 155.011C78.0609 155.225 77.8762 156.003 78.3308 156.471C78.5759 156.717 78.9275 156.805 79.2542 156.692L82.6142 155.541C83.2322 155.328 83.4168 154.55 82.9622 154.081C82.7172 153.836 82.3655 153.747 82.0388 153.861L78.6789 155.011ZM87.0787 152.134C86.4607 152.347 86.276 153.125 86.7306 153.594C86.9757 153.839 87.3273 153.928 87.654 153.814L91.0139 152.663C91.6319 152.45 91.8166 151.672 91.362 151.204C91.1169 150.958 90.7653 150.87 90.4386 150.983L87.0787 152.134ZM95.4784 149.257C94.8604 149.47 94.6758 150.248 95.1304 150.717C95.3754 150.962 95.7271 151.051 96.0538 150.937L99.4137 149.786C100.032 149.573 100.216 148.795 99.7618 148.326C99.5167 148.081 99.1651 147.992 98.8384 148.106L95.4784 149.257ZM103.878 146.38C103.26 146.593 103.076 147.371 103.53 147.84C103.775 148.085 104.127 148.174 104.454 148.06L107.814 146.909C108.432 146.696 108.616 145.918 108.162 145.449C107.917 145.204 107.565 145.115 107.238 145.229L103.878 146.38ZM112.278 143.502C111.66 143.716 111.475 144.494 111.93 144.962C112.175 145.208 112.527 145.296 112.853 145.183L116.213 144.032C116.831 143.819 117.016 143.041 116.561 142.572C116.316 142.327 115.965 142.238 115.638 142.352L112.278 143.502ZM120.678 140.625C120.06 140.838 119.875 141.616 120.33 142.085C120.575 142.33 120.926 142.419 121.253 142.305L124.613 141.154C125.231 140.941 125.416 140.163 124.961 139.695C124.716 139.449 124.364 139.361 124.038 139.474L120.678 140.625ZM129.078 137.748C128.46 137.961 128.275 138.739 128.73 139.208C128.975 139.453 129.326 139.542 129.653 139.428L133.013 138.277C133.631 138.064 133.816 137.286 133.361 136.817C133.116 136.572 132.764 136.483 132.438 136.597L129.078 137.748ZM130.147 49.5086C130.118 49.5015 130.09 49.4944 130.061 49.4873C127.533 48.8372 125.583 48.3612 124.752 48.1836C123.015 48.0451 121.374 48.5779 119.918 49.0503C119.417 49.2137 118.934 49.37 118.469 49.4979L40.9597 79.567L86.0806 99.1892L104.915 68.0047C105.32 67.3333 106.19 67.1167 106.862 67.5216C107.533 67.9266 107.75 68.7968 107.345 69.4682L90.0372 98.1235L128.25 77.1409C128.936 76.7643 129.799 77.0165 130.175 77.7021C130.552 78.3877 130.299 79.2509 129.614 79.6274L90.4954 101.107L144.425 124.559L144.368 121.667L150.008 60.4741C150.182 58.5772 150.967 57.1706 152.327 55.8918C150.871 55.3803 148.456 54.6272 145.653 53.7854C140.631 52.2793 134.537 50.6382 130.147 49.5086ZM146.896 127.489L147.252 130.228L147.269 130.214V130.217C149.951 128.384 152.32 126.534 154.589 124.42C156.745 122.413 158.823 120.168 161.011 117.483L153.886 58.3428C153.773 58.4671 153.67 58.595 153.574 58.7229C153.169 59.2699 152.902 59.9058 152.828 60.7299L147.202 121.774L147.291 126.484C147.298 126.875 147.145 127.23 146.893 127.489H146.896ZM144.407 130.306L144.037 127.482L37.202 81.0234L36.8433 81.1619C36.3496 81.3537 35.8524 81.5349 35.3516 81.7054L144.403 130.306H144.407ZM33.9274 82.0713C33.8386 82.2738 33.867 82.2063 33.9416 82.0464C33.9345 82.0535 33.9309 82.0606 33.9274 82.0713Z" fill="black"/>
</svg>
